<mxfile host="65bd71144e">
    <diagram id="rhNi0C1NWXdJnLJ8lDXa" name="戦闘画面">
        <mxGraphModel dx="1374" dy="790" grid="1" gridSize="10" guides="1" tooltips="1" connect="1" arrows="1" fold="1" page="1" pageScale="1" pageWidth="827" pageHeight="1169" math="0" shadow="0">
            <root>
                <mxCell id="0"/>
                <mxCell id="1" parent="0"/>
                <mxCell id="2" value="&lt;font style=&quot;font-size: 18px&quot;&gt;キャラクター&lt;/font&gt;" style="shape=umlActor;verticalLabelPosition=bottom;verticalAlign=top;html=1;outlineConnect=0;" vertex="1" parent="1">
                    <mxGeometry x="374" y="470" width="80" height="160" as="geometry"/>
                </mxCell>
                <mxCell id="5" value="" style="verticalLabelPosition=bottom;html=1;verticalAlign=bottom;strokeWidth=2;shape=mxgraph.lean_mapping.verbal;pointerEvents=1;align=center;" vertex="1" parent="1">
                    <mxGeometry x="369" y="210" width="90" height="140" as="geometry"/>
                </mxCell>
                <mxCell id="6" value="&lt;font style=&quot;font-size: 18px&quot;&gt;敵&lt;/font&gt;" style="text;html=1;align=center;verticalAlign=middle;resizable=0;points=[];autosize=1;strokeColor=none;" vertex="1" parent="1">
                    <mxGeometry x="400" y="170" width="30" height="20" as="geometry"/>
                </mxCell>
                <mxCell id="7" value="戦う　　アイテム　　逃げる" style="rounded=0;whiteSpace=wrap;html=1;verticalAlign=bottom;fontSize=18;" vertex="1" parent="1">
                    <mxGeometry x="160" y="720" width="510" height="60" as="geometry"/>
                </mxCell>
                <mxCell id="8" value="" style="rounded=0;whiteSpace=wrap;html=1;fontSize=18;verticalAlign=bottom;fillColor=none;" vertex="1" parent="1">
                    <mxGeometry x="309" y="440" width="211" height="230" as="geometry"/>
                </mxCell>
                <mxCell id="9" value="" style="rounded=0;whiteSpace=wrap;html=1;fontSize=18;fillColor=none;verticalAlign=bottom;" vertex="1" parent="1">
                    <mxGeometry x="320" y="160" width="190" height="190" as="geometry"/>
                </mxCell>
                <mxCell id="10" value="" style="rounded=0;whiteSpace=wrap;html=1;fontSize=18;fillColor=none;verticalAlign=bottom;" vertex="1" parent="1">
                    <mxGeometry x="350" y="740" width="120" height="60" as="geometry"/>
                </mxCell>
                <mxCell id="11" value="オブジェクトを囲う箱" style="rounded=0;whiteSpace=wrap;html=1;fontSize=18;fillColor=none;verticalAlign=bottom;" vertex="1" parent="1">
                    <mxGeometry x="50" y="50" width="120" height="60" as="geometry"/>
                </mxCell>
                <mxCell id="13" value="" style="shape=flexArrow;endArrow=classic;html=1;fontSize=18;" edge="1" parent="1">
                    <mxGeometry width="50" height="50" relative="1" as="geometry">
                        <mxPoint x="454" y="530" as="sourcePoint"/>
                        <mxPoint x="504" y="480" as="targetPoint"/>
                    </mxGeometry>
                </mxCell>
                <mxCell id="14" value="武器" style="rounded=0;whiteSpace=wrap;html=1;fontSize=18;fillColor=none;verticalAlign=bottom;" vertex="1" parent="1">
                    <mxGeometry x="440" y="480" width="120" height="60" as="geometry"/>
                </mxCell>
                <mxCell id="16" value="戦闘システム" style="rounded=0;whiteSpace=wrap;html=1;fontSize=18;fillColor=none;verticalAlign=bottom;" vertex="1" parent="1">
                    <mxGeometry x="70" y="120" width="690" height="730" as="geometry"/>
                </mxCell>
            </root>
        </mxGraphModel>
    </diagram>
</mxfile>